<svg xmlns="http://www.w3.org/2000/svg" viewBox="0 0 1343 1561"><g stroke-width="2" fill="none"><path stroke="#b5a398" vector-effect="non-scaling-stroke" d="M557.51 0q-16.54 1.71-30.76 1.24Q500.4.36 483.41.77q-.06 0-.04-.05v.12q.01.13.14.13 8.23.18 11.46 1.03 14.77 3.91 26.38 13.12 7.03 5.58 13.09 12.51 18.15 20.77 26.04 46.38 1 3.24 1.48 6.45c.58 3.89 1.68 7.93 1.52 11.89q-.04 1.03-.71.24c-.99-1.16-1.98-2-3.21-2.92q-18.93-13.99-41.31-19.96-6.41-1.72-13.26-3.25c-4.47-1.01-9.08-1.18-13.53-1.88-11.11-1.74-22.62-2.22-33.85-2.05q-1.37.03-.07.47c3.97 1.38 7.85 2.78 11.49 4.88 13.81 7.93 27.65 19.9 36.16 33.34 2.32 3.65 3.9 7.55 5.05 11.68 2.99 10.71-1.08 21.29-9.14 28.62q-11.7 10.63-26.53 16.47c-7.9 3.12-18.24 3.64-25.85-.65q-10.2-5.75-14.9-16.23-3.13-6.98-3.49-12.79-.66-10.65.41-24.95c.42-5.62.42-11.47-.18-17.09q-.16-1.5-.92-.19c-2.05 3.55-2.95 7.56-4.41 11.37q-1.22 3.18-1.93 6.46c-1.03 4.76-2.53 9.26-3.27 14.2-.8 5.32-2.54 10.6-3.35 16.07q-.37 2.51-.97 5.09-1.71 7.4-3.42 15.14-2.02 9.12-2.5 15.29-.89 11.46.15 22.47c.57 5.98 2.8 11.3 4.25 16.93q.16.6-.38.3c-11.42-6.24-18.77-19.23-23.75-31.35q-4.23-10.34-6.59-19.33c-1.29-4.91-2.99-10.04-3.94-15.13q-1.29-6.95-2.92-13.68-.02-.09-.04.01-.96 7.28-2.14 14.55-1.19 7.35-2.04 14.52c-.86 7.27-2.26 14.12-2.69 21.54q-.67 11.55-.22 23.72.27 7.03 1.4 12.75c1.03 5.19 1.81 10.42 2.8 15.49 1.02 5.22 2.37 10.18 2.98 15.53.74 6.44 2.04 12.78 2.25 19.46a.38.38 0 0 1-.63.29c-2-1.78-4.27-3.1-6.22-4.93-7.05-6.59-13.84-13.57-22.82-17.31q-3.23-1.34-6.1-1.24-1.58.05-.74 1.38 4.03 6.35 6.38 13.51c1.38 4.19 2.96 8.3 3.82 12.64 1.27 6.33 2.57 11.95 3.2 18.55q1.96 20.73.02 41.45c-.64 6.87-2.2 13.02-3.63 19.41-.77 3.43-2.15 6.89-3.16 10.36q-2.22 7.61-4.98 14.62c-1.28 3.26-2.09 6.54-3.46 9.71-1.18 2.74-1.65 5.58-2.87 8.32q-1.32 2.98-2.12 6.11c-.98 3.89-2.46 7.54-3.29 11.54-.99 4.82-2.57 9.49-3.5 14.48-.97 5.22-2.35 10.2-3.22 15.53q-.94 5.75-2.09 11.48c-1.31 6.46-1.6 13.23-2.27 20.61q-1.91 20.92 3.47 47.17.65 3.15 1.12 6.25c.79 5.19 2.24 9.97 3.18 15.15.92 5.02 2.61 9.8 3.62 14.86q.82 4.07 2.05 7.91c.82 2.56 1.04 5.47 1.9 7.89q1.87 5.19 2.81 9.88c.58 2.85 1.8 5.39 2.39 8.14 1.12 5.22 3.1 10.18 4.49 15.36q10.68 39.93 32.39 76.79 5.67 9.62 11.47 19.08"/><path stroke="#ffebd2" vector-effect="non-scaling-stroke" d="m390.12 702.48-.02 1.03"/><path stroke="#f7dfc2" vector-effect="non-scaling-stroke" d="M390.1 703.51q-14.97 8.72-23.01 24.04c-3.17 6.03-3.82 12.03-2.46 18.76q.83 4.03 1.73 7.37 2.2 8.12 7.55 19.86 13.46 29.56 33.56 58.24.17.24 1.01.83"/><path stroke="#ffebd2" vector-effect="non-scaling-stroke" d="M408.48 832.61q.87.83 1.1 1.89 2.34 10.9 5.03 22.31 2.73 11.57 5.64 19.26c6.67 17.63 17.87 34.23 29.09 49.89 1.12 1.56 1.57 3.38 2.53 5.02"/><path stroke="#f7dfc2" vector-effect="non-scaling-stroke" d="M451.87 930.98q1.19 2.95 1.49 4.73c1.12 6.69 3.17 13.47 3.94 20.31q.98 8.77 1.98 17.48.88 7.56 1.32 17.54 1.29 29.34 1.66 58.8"/><path stroke="#e9c7af" vector-effect="non-scaling-stroke" d="M462.26 1049.84c-21.66 2.54-40.31 16.98-51.54 35.31q-7.52 12.28-8.46 26.28-.17 2.62-.18 5.15 0 .68-.67.61-3.76-.34-7 1.03-7.04 3-14.46 7.81-4.12 2.67-6.65 6.06c-7.33 9.86-11.57 22.09-14.47 33.99q-1.41 5.8-2.31 10.84-2.26 12.79-3.72 30.08-1.35 16.05-.76 49.87"/><path stroke="#9ca3af" vector-effect="non-scaling-stroke" d="M352.04 1256.87q-15.15 8.98-27.46 15.19c-21.91 11.07-47.79 22.71-70.95 35.33-8.04 4.38-16.32 9.56-20.38 17.8-.32.65-.75.85-1.27 1.28"/><path stroke="#8d94a1" vector-effect="non-scaling-stroke" d="M231.98 1326.47q-24.58 11.26-49.42 21.93-13.24 5.68-27.64 12-20.63 9.06-39.36 17.95c-12.98 6.17-25.4 13.65-36.78 22.41-5.06 3.89-9.32 8.44-12.69 13.82q-7.42 11.86-13.64 24.41-9.14 18.43-16.22 35.01c-2.54 5.94-5.11 11.81-7.4 17.66-1.1 2.83-2.56 5.44-3.47 8.27q-.58 1.81-1.34 3.57-.76 1.76-1.44 3.54-5.37 13.96-10.37 27.89"/><path stroke="#fff0da" vector-effect="non-scaling-stroke" d="M12.21 1534.93q-2.47 2.84-3.64 6.32-.15.46-.53.76-.44.35-.67.86-1.56 3.42-2.57 6.72c-1.13 3.68-3.17 6.8-4.46 10.41q-.08.25-.02.5.07.26.19.5"/><path stroke="#b5a398" vector-effect="non-scaling-stroke" d="M569.26 0q8.75.96 17.49 1.93 3.9.43 21.05 5.26c7.76 2.19 15.52 5.17 23.06 8.25q9.85 4.03 20.79 9.9 32.56 17.49 54.63 48.11 6.4 8.88 9.79 21.81"/><path stroke="#84573c" vector-effect="non-scaling-stroke" d="M716.07 95.26q-.08.16-.13.34-.09.35-.45.36c-10.73.36-21.46.17-32.32 1.31q-14.21 1.48-23.47 3.12-11.35 2-26.15 5.9-3.56.94-6.86 2.12-3.23 1.15-6.63 2.27-9.86 3.27-21.3 10.01-6.51 3.84-12.38 11.04-.69.85.25.3c1.37-.79 2.06-2.21 3.31-3.16 2.67-2.02 4.93-4.45 7.83-6.2 8.65-5.22 17.08-8.35 26.78-11.48 4.9-1.59 9.7-2.51 14.65-3.77q5.08-1.29 10.92-2.09c7.03-.96 13.78-2.16 20.69-2.57q13.05-.78 25.5-1.66c11.36-.79 22.26.4 33.53 1.46 8.31.78 16 2.63 23.97 4.32 3.06.65 5.93 1.8 8.98 2.6q3.27.86 6.58 2.01 13.91 4.84 26.9 11.68 25.21 13.28 42.11 34.49 8.3 10.43 13.2 21.86 2.78 6.49 5.45 13.78 1.52 4.16 3.65 8.62c2.28 4.79 4.11 9.82 6.69 14.41q1.65 2.93 2.94 5.74 1.49 3.24 3.19 6 1.53 2.48 2.95 4.91 4.25 7.26 9.85 14.1 1.13 1.37 2.7 2.62.11.09.21-.01h.01q.11-.11.01-.24-5.63-6.81-9.07-13.15-3.02-5.57-6.28-12.08c-2.2-4.38-4.01-8.79-6.04-13.25-2.63-5.77-4.75-11.7-7.11-17.68q-1.55-3.96-2.66-7.64-2.73-9.09-7.78-18.29-8.85-16.11-23.7-29.33-22.94-20.42-53.15-31c-5.25-1.84-10.46-3.57-15.99-4.82q-6.74-1.52-13.28-2.79-10.19-1.97-25.17-3.24-.54-.04-.72-.55l-.13-.37"/><path stroke="#b5a398" vector-effect="non-scaling-stroke" d="M718.15 95.26c2.17-6.49 2.91-13.31 4.06-20.01q1.88-10.88-2.52-24.72-1.52-4.79-4.91-8.6-1.49-1.67.48-.61 8.43 4.54 19.19 9.39c9.84 4.44 19.4 8.93 26.59 16.53q6.34 6.7 13 13.87 3.44 3.69 8.37 6.87a.35.34 19.5 0 0 .53-.25q.73-6.66 1.46-13.72c.46-4.46 1.92-8.53 2.89-12.76q1.02-4.49 2.65-9.13 8.07-23.03 22.97-40.25 1.94-2.24 1.86.72-.3 12.25.37 24.36.36 6.6 2.26 18.01 1.7 10.23 3.83 17.47 8.8 29.96 30.53 52.78 9.49 9.96 19.05 20.19 7.47 7.99 14.38 13.78 18.73 15.68 33.69 28.49c17.22 14.76 31.86 31.08 43.79 50.47q14.05 22.83 24.27 48.38 10 25 16.34 50.62c.59 2.4.93 4.81 1.61 7.2q1.85 6.38 2.75 12.79c.5 3.52 1.57 7.58 1.96 10.51q3.76 28.99 4.1 35.86 1.1 22.99 1.92 46.24.56 15.84-1.48 50.58c-.55 9.44-2.22 18.45-3.59 27.79-.72 4.95-1.87 9.66-2.91 14.48q-1.14 5.24-2.89 10.65-2.06 6.37-3.7 12.59c-1.47 5.57-3.33 11-4.32 16.64-.54 3.09-1.72 6.01-2.26 9.09q-1 5.73-2.66 11.55c-1.38 4.86-1.91 9.83-3.45 14.73-1.03 3.28-1.28 6.67-2.32 9.98-1.66 5.26-2.71 10.52-4.35 15.73q-1.26 3.99-2.48 8.1-3.39 11.43-9.18 24.62-6.17 14.03-15.05 26.49"/><path stroke="#ad835b" vector-effect="non-scaling-stroke" d="M954.98 702.76q-.72.44-1.41-.05"/><path stroke="#b59473" vector-effect="non-scaling-stroke" d="M953.57 702.71q-5-9.3-6.16-13.14-1.22-4.06-2.45-8.04-1.23-4.05-2.04-8.02-1.01-4.94-2.32-10.18c-.83-3.3-.88-6.93-1.51-10.18q-1.53-7.78-2.31-17.14c-.6-7.24-1.6-14.41-2.5-21.68q-.84-6.8-1.55-15.18-.65-7.74-2.1-16.02-.86-4.89-1.23-10.53c-.55-8.21-2.32-16.26-3.09-24.27-.52-5.47-1.64-10.79-2.79-16.13-.85-3.97-1.15-7.97-2.24-11.88q-1.2-4.36-2.03-8.71c-.75-3.94-2.58-7.76-3.51-11.81-.72-3.1-2.19-5.9-2.95-9.06-.78-3.21-2.59-6.29-3.76-9.47-6.71-18.28-22.18-32.17-35.49-45.81q-9.82-10.07-14.41-17.52-5.27-8.57-6.88-13.12-1.73-4.87-3.61-9.55c-.68-1.71-1.87-2.9-2.89-4.42q-1.01-1.52-2.98-2.09c-5.8-1.67-11.73-.28-17.6-1.62q-5.32-1.21-10.38-3.28c-2.58-1.05-5.18-1.46-7.72-2.56q-2.73-1.2-5.61-1.93c-2.97-.75-5.61-2.43-8.6-3.27-3.58-1.01-6.92-2.84-10.49-4.15q-7.39-2.73-14.51-6.8-1.44-.82-2.73-2.05-.65-.62-.8.26l-.13.74q-.09.52-.5.86-3.96 3.29-7.51 3.9c-7.73 1.35-15.95 1.5-24.27.99q-11.54-.71-23.63-.96-3.63-.08-7.72-1.34-8.67-2.67-17.41-6.72c-4.03-1.87-8.21-3.05-12.38-4.46"/><path stroke="#b58f6b" vector-effect="non-scaling-stroke" d="M670.78 356.37c-5.24-.98-12.73-1.4-17.65.76-2.74 1.21-5.54 1.96-8.19 3.43q-8.63 4.8-15.62 7.78-7.28 3.1-15.32 3.3-4.94.12-10.42-.06c-3.45-.11-6.8.24-10.26.48-4.48.32-9.37 2.73-12.7 5.56q-5.87 5-13.87 13.7-7.53 8.19-15.76 14.19-5.73 4.18-17.21 10.21c-3.3 1.74-6.28 3.72-9.53 5.52q-14.69 8.16-27.33 14.97c-6.22 3.34-12.57 6.6-19.03 9.34-28.66 12.12-63.08 25.52-72.62 57.7q-1.83 6.18-1.99 11.7c-.23 7.54-.23 15.14 1.22 22.4q.76 3.84 1.36 7.67.89 5.63 2.12 11.45 6.55 30.91 3.61 61.7-.66 6.82-1.33 13.64c-.74 7.5-2.6 14.44-4.16 21.56-.7 3.17-1.84 6.01-2.63 9.09q-.85 3.26-2.01 6.66-2.62 7.62-5.24 16.2c-1.26 4.11-2.95 8.12-3.93 12.54q-.53 2.4-1.53 4.81-.12.29-.41.18-.25-.1-.23-.37"/><path stroke="#84573c" vector-effect="non-scaling-stroke" d="M660.02 350.45c-1.06-.98-2.23-1.74-3.25-2.79q-4.13-4.24-8.62-8.33c-2.78-2.52-5.02-5.6-7.67-8.26q-3.02-3.05-5.55-6.24-18.4-23.17-28.48-46.26-9.36-21.46-14.71-47.19-.63-3.02-3.33-13.3-3.6-13.73-9.13-27.48c-1.37-3.4-3.22-6.82-5.01-10.1q-9.28-16.93-27.4-22.22c-1.16-.34-2.36-.28-3.37-.97a.53.53 0 0 1 .2-.95q8.84-1.74 17.05-2.65c15.65-1.75 31.46-3.25 47.17-1.45q4.88.57 9.37 1.02c6.7.68 13.24 2.6 19.6 4.95 15.05 5.56 25.69 17.25 37.91 26.96q5.06 4.01 8.63 8.75 8.36 11.08 12.22 20.43 5.33 12.94 7.59 22.86 1.05 4.6 2.15 8.76c1.36 5.17 2.09 10.82 3.76 16.22 1.26 4.03 1.86 8.13 3.18 12.22.99 3.08 1.25 6.12 2.38 9.25q1.13 3.12 2.02 6.19 5.64 19.42 14.95 37.5 8.25 16.05 22.03 26.34 4.54 3.4.54-.62c-1.1-1.1-2.69-1.91-3.78-3.07q-5.81-6.15-7.76-9.27-11.96-19.14-17.82-39-1.58-5.32-3.28-10.78c-1.09-3.47-1.53-7.04-2.63-10.47q-1.14-3.56-1.92-7.44-.68-3.42-1.86-7.24c-1.51-4.86-2.25-10.14-3.72-15.14-.77-2.59-.79-5.28-1.41-7.89q-1.77-7.47-4.06-16.3-2.11-8.16-5.76-15.5-15.56-31.31-45.21-49.12-21.17-12.73-41.71-18.52-12.73-3.6-26.36-6.53-.4-.08-.79.02-.46.12-.02.28 3.64 1.32 6.99 2.15c5.37 1.34 10.72 3.23 15.84 5q2.7.94 5.14 2.37.79.47-.13.4-10.86-.78-24.73-.35-8.36.26-15.99 1.72-6.34 1.21-12.65 2.23c-4 .65-7.83 2.28-11.91 2.99q-3.26.58-6.31 2.2c-1.07.57-2.3.6-3.42.97q-.8.26.02.45c1.51.33 3.03.27 4.49.89 3.53 1.5 7.03 2.29 10.48 4.26q7.5 4.31 12.38 11.13 3.32 4.63 5.51 9.59 5.04 11.45 8.43 23.39c1.25 4.39 2.21 9.99 3.65 15.01q.92 3.2 1.48 6.87.54 3.59 1.61 7.01c.85 2.7 1.04 5.63 1.82 8.35q2.07 7.26 4.13 14.63 2.34 8.4 6.51 17.65 3.28 7.27 6.79 13.93 15.93 30.28 41.25 52.2 5.77 5 12.25 9.32.16.11.34.12.17.01.35.03.86.08.32-.59-.15-.19-.37-.31-.22-.11-.41-.28M443.64 157.72q-.01.23.05.44.03.14.12.25 5.89 7.43 17.19 14.38 11.8 7.25 24.13 9.12c9.5 1.44 20.99-.75 27.99-7.65q.29-.29.04-.61l-.16-.2q-.13-.16-.31-.05-4.2 2.78-8.17 3.58c-8.41 1.7-17.16.87-25.28-1.89q-11.37-3.87-21.03-9.87-6.93-4.3-13.96-8.35a.51.51 0 0 0-.73.25q-.12.3.06.46.06.05.06.14M745.76 227.86q-2.22 11.97-.44 23.41 1.05 6.76 2.17 13.07c.93 5.2 2.34 10.59 3.86 15.64q3.88 12.86 9.9 26.78 7.78 17.97 21.6 40.39c1.97 3.2 4.51 5.86 6.66 8.85q.11.15.3.13.18-.03.23-.16.07-.19-.02-.37-3.86-7.92-7.68-15.45-5.08-10.04-7.51-15.36-10.81-23.68-18.92-48.21c-1.16-3.49-1.87-6.98-2.98-10.48q-1.16-3.68-2.01-7.84-2.49-12.28-2.82-16.43-.72-9.11-.25-19.55.11-2.41-.64-.12-.89 2.72-1.45 5.7"/><path stroke="#84573c" vector-effect="non-scaling-stroke" d="M697.25 362.7q1.24.95 1.76-.63a.96.96 0 0 0-.31-1.05q-8.38-6.8-14.16-14.29-7.28-9.43-13.35-21.73-8.81-17.88-13.57-38.55c-1.34-5.82-1.95-11.62-2.46-17.33q-1.2-13.48 2.59-27.14.06-.23-.17-.31h-.01q-.21-.07-.28.15c-1.33 4.12-3.63 8.16-4.25 12.43q-2.26 15.63-1.12 24.28.64 4.88 1.23 10.17c.46 4.22 1.8 8.07 2.81 12.15q.86 3.48 2.19 7.21 1.31 3.63 2.7 7.16 6.77 17.2 18.53 31.8c4.62 5.74 10.21 10.67 16.33 15.02q.31.22.68.28.48.08.86.38M802.76 370.52q-1.72-5.02-3.94-9.86c-.57-1.25-.57-2.82-1.18-4.12q-2.14-4.52-3.11-9.05c-.66-3.11-2.21-5.98-2.86-9.04q-1-4.72-2.18-9.37c-1.52-6.06-2.26-12.2-3.48-18.34q-.95-4.73-1.38-9.13-.99-10.07-2.34-20.34c-.94-7.13-1.12-14.44-2.05-21.61q-.36-2.79-.66.01-2.12 20.1-.21 39.83c.45 4.6 1.38 9.06 1.7 13.67.41 6.09 2.16 11.81 3.29 17.77q.63 3.28 2.06 7.58 2.07 6.18 4.46 12.61c1.21 3.24 2.94 6.05 4.04 9.3.72 2.15 2.27 3.73 3.19 5.79 1.29 2.91 3.2 5.41 5.23 7.83q1.02 1.23.88-.36c-.1-1.14-1.09-2.09-1.46-3.17M519.9 421.17q2.18-1.02 4.24-1.99.3-.14.34-.48.02-.15.06-.3a.88.87-85.7 0 1 .71-.62q1-.14 1.56-.83.29-.37.77-.39c.89-.03 1.66-.27 2.28-.95q1.73-1.89 3.72-3.12.48-.29.72-.8.62-1.27 1.59-1.97 1.96-1.42 3.58-3 .06-.06.16-.07.14-.03.29-.01.31.05.53-.18 1.35-1.38 3.14-2.29a.04.03-29.4 0 0 .02-.05l-.14-.23q-.13-.21-.34-.07-3.77 2.52-7.65 5.02-.33.22-.51.5-.26.43-.74.6-.96.34-1.65 1.08-.69.73-1.59 1.23-11.73 6.53-14.49 7.37-2.76.84-5.29 1.97-2.1.94-4.53 1.41-2.54.5-4.99 1.33-7.88 2.69-16.68 2.43c-5.34-.16-10.86-.13-16.16-1.3q-13.9-3.08-24.97-10.94-12.84-9.11-22.95-22.61-13.68-18.25-23.5-42.4-9.4-23.12-14.05-46.91-2.28-11.63-3.85-23.64-.01-.13-.14-.12h-.01q-.11.01-.11.13c.15 8.76.19 16.98 1.76 25.94q1.35 7.67 2.81 15.3 2.7 14.05 9.93 33.27 5.51 14.62 12.66 26.64c11.21 18.85 25.02 34.72 44.77 44.61 2.58 1.3 5.17 2.08 7.82 3.12q2.94 1.15 6.09 1.73 9.43 1.75 13.93 1.79 5.94.04 16.08-1.46c5.04-.75 9.5-2.52 14.18-4.16 1.55-.55 2.79-1.41 4.44-1.88q1.65-.48 3.13-1.23 1.41-.71 3.03-1.47"/><path stroke="#84573c" vector-effect="non-scaling-stroke" d="M722.04 359.44c-2.59-1.45-5.4-2.91-7.68-4.8-3.08-2.54-6.51-4.88-9.15-7.6q-11.67-12-17.29-27.73c-1.86-5.2-3.79-11.53-4.86-17.51q-1.26-7.04-2.85-13.76-.34-1.43-.39.03-.18 5.16-.26 10.47-.32 21.14 11.01 38.79c4.46 6.95 10.21 11.8 16.95 16.43 2.67 1.84 5.69 3.06 8.59 4.35q2.67 1.19 5.8 1.68 1.06.17.13-.35M416.57 320.85c1.16 1.51 2.6 2.98 3.9 4.38q30.74 32.97 72.68 48.26c4.97 1.81 10.04 3.01 15.09 4.69 2.36.79 4.84 1.13 7.27 1.52q1.45.24 5.52 1.03 8.95 1.74 18.7 1.6 13.79-.19 24.71-2.56 3.81-.82 7.41-2.27 3.74-1.5 7.16-3.16.99-.48-.08-.72-.71-.17-1.37.27-.74.49-1.6.65-5.98 1.15-11.77 2.52c-12.44 2.95-24.63 2.35-37.08-.2-4.14-.85-8.1-1.09-12.27-2.19q-11.27-2.97-20.76-6.65-35.81-13.9-65.17-38.59-11.65-9.8-21.98-22.7-.08-.1-.17-.02l-.22.17q-.18.14-.05.33 4.71 6.66 10.08 13.64"/><path stroke="#fff0da" vector-effect="non-scaling-stroke" d="M1338.85 1561q1.19-.47 2.34-.24a.78.77 83.2 0 0 .85-1.09l-7.8-16.8"/><path stroke="#8d94a1" vector-effect="non-scaling-stroke" d="M1334.24 1542.87q-2.47-6.38-4.75-13.03-3.2-9.27-4.64-13.08-12.8-33.77-28.6-67.42-9.65-20.56-18.81-34.89c-6.38-9.97-15.54-16.45-25.82-23.04q-14.92-9.56-31.28-16.47"/><path stroke="#e9c7af" vector-effect="non-scaling-stroke" d="M1220.34 1374.94q-2.34-8.47-3.64-16.88-.85-5.51-2.24-9.99-2.83-9.11-5.66-17.95c-3.39-10.56-9.06-18.45-19.41-23.14q-8.49-3.84-24-7.25-2.76-.61-5.14-1.42c-4.32-1.47-8.49-2.68-12.69-4.63-12.78-5.93-20.48-17.91-24.35-31.98q-2.9-10.53-5.88-21.06-2.06-7.29-6.32-13.81c-6.18-9.44-17.76-15.7-29.3-15.7q-7.24.01-13.08 1.2-10.99 2.25-25 7.16-15.86 5.56-33.75 13.49-4.74 2.11-9.66 4.17"/><path stroke="#ceb3a3" vector-effect="non-scaling-stroke" d="M1000.22 1237.15q-1.31-16.86-3.13-33.38-.6-5.43-1.49-10.42c-1.12-6.22-2-12.34-3.69-18.5q-.94-3.42-2.15-8.03-3.6-13.71-11.42-27.21c-7.9-13.63-20.01-22.32-36.5-21.18q-.58.04-.57-.53.22-10.8-2.62-19.62-4.59-14.31-16.49-26.86-14.39-15.18-34.46-20.59-2.2-.59-7.74-.84"/><path stroke="#fff0da" vector-effect="non-scaling-stroke" d="M879.96 1049.99q.45-2 .51-5.24.43-22.34 1.72-52.26.45-10.52 1.38-19.96c1.25-12.61 3.02-25.26 6.24-37.5q.67-2.56 2.41-4.82 11.13-14.49 19.9-28.94 6.78-11.16 10.86-21.09 2.87-6.98 5.38-16.2 3.75-13.79 6.57-28.5.36-1.88 1.56-2.52"/><path stroke="#f7dfc2" vector-effect="non-scaling-stroke" d="M936.49 832.96q16.63-23.7 29.39-48.8 5.91-11.62 10.07-22.72 2.67-7.09 3.82-13.15c.99-5.24 1.49-12.83-.82-17.99q-7.54-16.83-23.59-26.48-.4-.24-.46-.7-.02-.22.08-.36"/><path stroke="#ceb3a3" vector-effect="non-scaling-stroke" d="M718.15 95.26q-.21.97-1.15.83-.41-.06-.93-.83"/><path stroke="#ffdbad" vector-effect="non-scaling-stroke" d="M670.78 356.37q-1.22.13-1.42.73a.63.63 0 0 0 .32.76q2.47 1.19 2.45 3.16-.08 7.63-.09 14.98-.05 334.87-.02 667.25.01 10.4.42 13.51"/><path stroke="#f7ca95" vector-effect="non-scaling-stroke" d="M672.44 1056.76q-8.34.6-17.19-.99-14.07-2.52-26.64-6.21-11.43-3.36-28.76-9.83c-16.84-6.28-31.74-13.58-46.73-23.24q-37.08-23.9-67.37-51.19-16.28-14.66-33.25-34.57-.17-.2-.41-.1-.21.08-.22.35M408.48 832.61q.17-.15.31-.48.11-.27.06-.57-.67-3.61-1.38-6.78c-1.19-5.28-1.61-10.7-2.73-15.97q-.93-4.4-1.5-9.21c-.93-7.88-2.82-15.47-3.67-23.36q-.63-5.91-1.69-12.62-.9-5.67-1.64-12.77c-1.03-9.75-2.52-19.13-3.35-29.17q-.7-8.54-1.84-17.04-.21-1.63-.95-1.13"/><path stroke="#f7cf9c" vector-effect="non-scaling-stroke" d="M953.57 702.71q-.66 12.12-2.14 24.06-.86 6.91-1.81 15.74-.85 7.89-2.13 15.73c-.92 5.66-1.26 11.64-2.26 17.35-1.54 8.78-2.2 17.43-4.06 26.12q-.63 2.93-1.87 11.29-.7 4.74-2.3 11.25-.9 3.67-.51 8.71"/><path stroke="#cea47e" vector-effect="non-scaling-stroke" d="M879.96 1049.99q1.71 14.15 1.96 22.51 1.24 42.14-1.57 83.76c-.43 6.27-1.26 12.45-1.53 18.81-.31 7.17-2.33 13.84-3.06 20.82-.85 8.03-2.86 15.6-3.94 23.84q-.76 5.77-2.14 11.75c-.73 3.14-.73 6.46-1.48 9.58q-1.76 7.37-2.91 14.59c-.84 5.23-2.15 10.29-3.09 15.5q-1.11 6.14-2.75 12.17c-.86 3.15-1.11 6.57-2.07 9.86q-.97 3.34-1.78 7.31-1.26 6.15-3.27 12.34"/><path stroke="#e9b889" vector-effect="non-scaling-stroke" d="M852.33 1312.83q-.79 1.24-4.37 3.12-27.61 14.52-50.71 20.56-18.09 4.73-28.44 6.47-7.82 1.32-15.65 2.44c-11.26 1.6-23.15 1.95-34.43 2.23q-11.01.27-33.94-1.3-5.94-.4-13.02-1.46-6.44-.96-12.99-1.99-13.09-2.06-33.5-7.21-35.65-8.98-76.03-27.18c-30.79-13.88-57.8-36.49-74.9-66.11q-.62-1.07-2.18-4.34"/><path stroke="#f7cf9c" vector-effect="non-scaling-stroke" d="M472.17 1238.06q14.11-10.41 28.79-19.32 39.71-24.11 84.38-51.38 48.2-29.43 95.54-61.21 17.7-11.88 37.19-26.39 19.52-14.54 34.7-28.77 6.52-6.12 13.09-14.21c1.58-1.94 2.57-4.05 3.95-6.09q1.48-2.18-.95-1.13c-6.59 2.86-12.99 6.05-19.66 8.51-5.91 2.17-11.84 4.56-17.74 6.55q-7.49 2.53-15.06 4.82-12.08 3.65-27.9 6.4-7.6 1.32-16.06.92"/><path stroke="#e1a771" vector-effect="non-scaling-stroke" d="M472.17 1238.06q-2.72-4.72-4.33-8.42c-4.94-11.42-8.72-23.51-10.83-35.82-2.48-14.51-3.61-29.01-2.64-43.32q1.08-15.93 3.29-40.5"/><path stroke="#f7dfc2" vector-effect="non-scaling-stroke" d="M457.66 1110q1.69-5.22 2.44-11.46 2.62-21.78 2.51-42.09"/><path stroke="#e1a771" vector-effect="non-scaling-stroke" d="M462.61 1056.45q-.43-2.12.3-4.97.39-1.56-.65-1.64"/><path stroke="#e9c7af" vector-effect="non-scaling-stroke" d="M462.61 1056.45q-1.52 6.9-1.99 13.84-.74 11.14-.75 11.23-1.04 10.62-1.97 21.23-.29 3.29-.24 7.25"/><path stroke="#b87b53" vector-effect="non-scaling-stroke" d="M852.33 1312.83q.19.33.58.4.27.04.63-.16 24.89-13.75 59.36-32.17 44.4-23.72 87.32-43.75"/><path stroke="#775c51" vector-effect="non-scaling-stroke" d="M1220.34 1374.94q-11.54-2.74-22.53-8.24-19.25-9.65-38.4-18.94c-1.94-.94-4.01-1.58-5.94-2.52-3.75-1.82-8.45-1.88-12.43-.82-11.08 2.95-21.05 9.77-29.32 17.47"/><path stroke="#866b5e" vector-effect="non-scaling-stroke" d="M1111.72 1361.89q-8.18 7.04-13.01 12.06-18.63 19.35-34.01 34.74-18.22 18.22-35.96 29.35-12.08 7.58-22.86 13.07-9.4 4.79-30.67 15"/><path stroke="#b87b53" vector-effect="non-scaling-stroke" d="M975.21 1466.11q-2.24 1.09-3.63 1.74-49.45 23.42-103.86 40.38c-20.11 6.27-39.44 11.1-61.08 15.93-3.88.86-7.8 1.3-11.64 2.17q-8.48 1.92-17.71 3.23c-6.9.97-13.7 2.45-20.63 3.07q-6.37.56-12.84 1.5c-8.52 1.23-17.17 1.64-25.82 1.83q-2.54.05-4.04.89"/><path stroke="#d2b499" vector-effect="non-scaling-stroke" d="M713.96 1536.85q-.2-.14-.34-.25a.98.96-26.4 0 0-.67-.22q-24.84 1.6-48.85.47-7.67-.36-25.45-1.48c-8.03-.51-16.08-1.96-24.05-2.73-7.29-.7-14.47-2.55-21.71-3.58-5.28-.75-10.25-2.27-15.36-3.27q-5.71-1.11-11.43-2.6-56.48-14.75-108.75-40.77-.83-.41-6.93-3.77-3.41-1.88-7.14-3.45"/><path stroke="#866b5e" vector-effect="non-scaling-stroke" d="M443.28 1475.2q-5.83-3.5-11.92-7.22-7.49-4.58-11.67-7.66c-29.41-21.69-47.21-53.79-56.17-89.35-1.4-5.56-2.95-11.49-3.9-17.13q-1.25-7.42-2.56-15.51-1.11-6.81-1.7-15.24-.65-9.08-1.6-19.09-1.06-11.16-1.72-47.13"/><path stroke="#849099" vector-effect="non-scaling-stroke" d="M443.28 1475.2q26.1 44.79 57.66 85.8"/><path stroke="#2a3851" vector-effect="non-scaling-stroke" d="M293.88 1561q5.06-9.89 6.96-17.19 1.73-6.65 3.71-13.99c.39-1.45.39-3.01.83-4.4q2.03-6.52 3.44-12.7c.86-3.72 2.31-7.29 3.54-10.87.93-2.72 2.35-5.16 3.94-7.52q.99-1.48-.76-1.81c-5.28-1-10.16-2.86-15.32-4.37q-11.35-3.32-24.47-7.36-16.18-4.98-32.83-10.3-3.24-1.04-6.83-2.47a2.14 2.11 9.7 0 1-1.33-1.85q-1.06-19.16-2.45-38.38-.71-9.68-.94-19.91-.4-17.64-1.11-35.22c-.39-9.66-.44-19.54-.21-29.49q.14-6.06 1.83-15.11.08-.46.44-.76.45-.38-.34-.83"/><path stroke="#8d857c" vector-effect="non-scaling-stroke" d="M5.45 1561q2.29-12.46 3.82-16.75 2.49-6.96 2.94-9.32M1334.24 1542.87q.86 4.86 2.99 11.88.83 2.75.48 6.25"/><path stroke="#2a3851" vector-effect="non-scaling-stroke" d="M1050.2 1561q-3.27-4.91-4.7-9.02-3.65-10.49-6.97-24.76-1.18-5.07-2.32-9.24-1.26-4.56-2.55-9.13-2.29-8.12-6.53-15.04a.8.79-21.6 0 1 .52-1.19q4.93-.98 9.46-2.61c3.25-1.17 6.6-1.68 9.95-2.89q3.47-1.25 7.5-2.39 6.59-1.85 13.68-4.05 10.92-3.39 20.76-6.48 5.35-1.68 10.24-3.19 3.64-1.12 8.64-3.26.44-.19.49-.66c1.3-13.88 2.49-27.47 3.03-41.59l2.32-60q.13-3.31-2-3.61"/><path stroke="#6a5753" vector-effect="non-scaling-stroke" d="M942.83 1561q11.17-23.75 19.69-49.49 7.58-22.91 12.69-45.4"/><path stroke="#b6a08e" vector-effect="non-scaling-stroke" d="m690.63 1561-.6-.25q-.49-.2-.11-.56l24.04-23.34"/></g><path fill="#fff" d="M0 0h557.51q-16.54 1.71-30.76 1.24Q500.4.36 483.41.77q-.06 0-.04-.05v.12q.01.13.14.13 8.23.18 11.46 1.03 14.77 3.91 26.38 13.12 7.03 5.58 13.09 12.51 18.15 20.77 26.04 46.38 1 3.24 1.48 6.45c.58 3.89 1.68 7.93 1.52 11.89q-.04 1.03-.71.24c-.99-1.16-1.98-2-3.21-2.92q-18.93-13.99-41.31-19.96-6.41-1.72-13.26-3.25c-4.47-1.01-9.08-1.18-13.53-1.88-11.11-1.74-22.62-2.22-33.85-2.05q-1.37.03-.07.47c3.97 1.38 7.85 2.78 11.49 4.88 13.81 7.93 27.65 19.9 36.16 33.34 2.32 3.65 3.9 7.55 5.05 11.68 2.99 10.71-1.08 21.29-9.14 28.62q-11.7 10.63-26.53 16.47c-7.9 3.12-18.24 3.64-25.85-.65q-10.2-5.75-14.9-16.23-3.13-6.98-3.49-12.79-.66-10.65.41-24.95c.42-5.62.42-11.47-.18-17.09q-.16-1.5-.92-.19c-2.05 3.55-2.95 7.56-4.41 11.37q-1.22 3.18-1.93 6.46c-1.03 4.76-2.53 9.26-3.27 14.2-.8 5.32-2.54 10.6-3.35 16.07q-.37 2.51-.97 5.09-1.71 7.4-3.42 15.14-2.02 9.12-2.5 15.29-.89 11.46.15 22.47c.57 5.98 2.8 11.3 4.25 16.93q.16.6-.38.3c-11.42-6.24-18.77-19.23-23.75-31.35q-4.23-10.34-6.59-19.33c-1.29-4.91-2.99-10.04-3.94-15.13q-1.29-6.95-2.92-13.68-.02-.09-.04.01-.96 7.28-2.14 14.55-1.19 7.35-2.04 14.52c-.86 7.27-2.26 14.12-2.69 21.54q-.67 11.55-.22 23.72.27 7.03 1.4 12.75c1.03 5.19 1.81 10.42 2.8 15.49 1.02 5.22 2.37 10.18 2.98 15.53.74 6.44 2.04 12.78 2.25 19.46a.38.38 0 0 1-.63.29c-2-1.78-4.27-3.1-6.22-4.93-7.05-6.59-13.84-13.57-22.82-17.31q-3.23-1.34-6.1-1.24-1.58.05-.74 1.38 4.03 6.35 6.38 13.51c1.38 4.19 2.96 8.3 3.82 12.64 1.27 6.33 2.57 11.95 3.2 18.55q1.96 20.73.02 41.45c-.64 6.87-2.2 13.02-3.63 19.41-.77 3.43-2.15 6.89-3.16 10.36q-2.22 7.61-4.98 14.62c-1.28 3.26-2.09 6.54-3.46 9.71-1.18 2.74-1.65 5.58-2.87 8.32q-1.32 2.98-2.12 6.11c-.98 3.89-2.46 7.54-3.29 11.54-.99 4.82-2.57 9.49-3.5 14.48-.97 5.22-2.35 10.2-3.22 15.53q-.94 5.75-2.09 11.48c-1.31 6.46-1.6 13.23-2.27 20.61q-1.91 20.92 3.47 47.17.65 3.15 1.12 6.25c.79 5.19 2.24 9.97 3.18 15.15.92 5.02 2.61 9.8 3.62 14.86q.82 4.07 2.05 7.91c.82 2.56 1.04 5.47 1.9 7.89q1.87 5.19 2.81 9.88c.58 2.85 1.8 5.39 2.39 8.14 1.12 5.22 3.1 10.18 4.49 15.36q10.68 39.93 32.39 76.79 5.67 9.62 11.47 19.08l-.02 1.03q-14.97 8.72-23.01 24.04c-3.17 6.03-3.82 12.03-2.46 18.76q.83 4.03 1.73 7.37 2.2 8.12 7.55 19.86 13.46 29.56 33.56 58.24.17.24 1.01.83.87.83 1.1 1.89 2.34 10.9 5.03 22.31 2.73 11.57 5.64 19.26c6.67 17.63 17.87 34.23 29.09 49.89 1.12 1.56 1.57 3.38 2.53 5.02q1.19 2.95 1.49 4.73c1.12 6.69 3.17 13.47 3.94 20.31q.98 8.77 1.98 17.48.88 7.56 1.32 17.54 1.29 29.34 1.66 58.8c-21.66 2.54-40.31 16.98-51.54 35.31q-7.52 12.28-8.46 26.28-.17 2.62-.18 5.15 0 .68-.67.61-3.76-.34-7 1.03-7.04 3-14.46 7.81-4.12 2.67-6.65 6.06c-7.33 9.86-11.57 22.09-14.47 33.99q-1.41 5.8-2.31 10.84-2.26 12.79-3.72 30.08-1.35 16.05-.76 49.87-15.15 8.98-27.46 15.19c-21.91 11.07-47.79 22.71-70.95 35.33-8.04 4.38-16.32 9.56-20.38 17.8-.32.65-.75.85-1.27 1.28q-24.58 11.26-49.42 21.93-13.24 5.68-27.64 12-20.63 9.06-39.36 17.95c-12.98 6.17-25.4 13.65-36.78 22.41-5.06 3.89-9.32 8.44-12.69 13.82q-7.42 11.86-13.64 24.41-9.14 18.43-16.22 35.01c-2.54 5.94-5.11 11.81-7.4 17.66-1.1 2.83-2.56 5.44-3.47 8.27q-.58 1.81-1.34 3.57-.76 1.76-1.44 3.54-5.37 13.96-10.37 27.89-2.47 2.84-3.64 6.32-.15.46-.53.76-.44.35-.67.86-1.56 3.42-2.57 6.72c-1.13 3.68-3.17 6.8-4.46 10.41q-.08.25-.02.5.07.26.19.5H0V0Z"/><path fill="#6b4731" d="M557.51 0h11.75q8.75.96 17.49 1.93 3.9.43 21.05 5.26c7.76 2.19 15.52 5.17 23.06 8.25q9.85 4.03 20.79 9.9 32.56 17.49 54.63 48.11 6.4 8.88 9.79 21.81-.08.16-.13.34-.09.35-.45.36c-10.73.36-21.46.17-32.32 1.31q-14.21 1.48-23.47 3.12-11.35 2-26.15 5.9-3.56.94-6.86 2.12-3.23 1.15-6.63 2.27-9.86 3.27-21.3 10.01-6.51 3.84-12.38 11.04-.69.85.25.3c1.37-.79 2.06-2.21 3.31-3.16 2.67-2.02 4.93-4.45 7.83-6.2 8.65-5.22 17.08-8.35 26.78-11.48 4.9-1.59 9.7-2.51 14.65-3.77q5.08-1.29 10.92-2.09c7.03-.96 13.78-2.16 20.69-2.57q13.05-.78 25.5-1.66c11.36-.79 22.26.4 33.53 1.46 8.31.78 16 2.63 23.97 4.32 3.06.65 5.93 1.8 8.98 2.6q3.27.86 6.58 2.01 13.91 4.84 26.9 11.68 25.21 13.28 42.11 34.49 8.3 10.43 13.2 21.86 2.78 6.49 5.45 13.78 1.52 4.16 3.65 8.62c2.28 4.79 4.11 9.82 6.69 14.41q1.65 2.93 2.94 5.74 1.49 3.24 3.19 6 1.53 2.48 2.95 4.91 4.25 7.26 9.85 14.1 1.13 1.37 2.7 2.62.11.09.21-.01h.01q.11-.11.01-.24-5.63-6.81-9.07-13.15-3.02-5.57-6.28-12.08c-2.2-4.38-4.01-8.79-6.04-13.25-2.63-5.77-4.75-11.7-7.11-17.68q-1.55-3.96-2.66-7.64-2.73-9.09-7.78-18.29-8.85-16.11-23.7-29.33-22.94-20.42-53.15-31c-5.25-1.84-10.46-3.57-15.99-4.82q-6.74-1.52-13.28-2.79-10.19-1.97-25.17-3.24-.54-.04-.72-.55l-.13-.37c2.17-6.49 2.91-13.31 4.06-20.01q1.88-10.88-2.52-24.72-1.52-4.79-4.91-8.6-1.49-1.67.48-.61 8.43 4.54 19.19 9.39c9.84 4.44 19.4 8.93 26.59 16.53q6.34 6.7 13 13.87 3.44 3.69 8.37 6.87a.35.34 19.5 0 0 .53-.25q.73-6.66 1.46-13.72c.46-4.46 1.92-8.53 2.89-12.76q1.02-4.49 2.65-9.13 8.07-23.03 22.97-40.25 1.94-2.24 1.86.72-.3 12.25.37 24.36.36 6.6 2.26 18.01 1.7 10.23 3.83 17.47 8.8 29.96 30.53 52.78 9.49 9.96 19.05 20.19 7.47 7.99 14.38 13.78 18.73 15.68 33.69 28.49c17.22 14.76 31.86 31.08 43.79 50.47q14.05 22.83 24.27 48.38 10 25 16.34 50.62c.59 2.4.93 4.81 1.61 7.2q1.85 6.38 2.75 12.79c.5 3.52 1.57 7.58 1.96 10.51q3.76 28.99 4.1 35.86 1.1 22.99 1.92 46.24.56 15.84-1.48 50.58c-.55 9.44-2.22 18.45-3.59 27.79-.72 4.95-1.87 9.66-2.91 14.48q-1.14 5.24-2.89 10.65-2.06 6.37-3.7 12.59c-1.47 5.57-3.33 11-4.32 16.64-.54 3.09-1.72 6.01-2.26 9.09q-1 5.73-2.66 11.55c-1.38 4.86-1.91 9.83-3.45 14.73-1.03 3.28-1.28 6.67-2.32 9.98-1.66 5.26-2.71 10.52-4.35 15.73q-1.26 3.99-2.48 8.1-3.39 11.43-9.18 24.62-6.17 14.03-15.05 26.49-.72.44-1.41-.05-5-9.3-6.16-13.14-1.22-4.06-2.45-8.04-1.23-4.05-2.04-8.02-1.01-4.94-2.32-10.18c-.83-3.3-.88-6.93-1.51-10.18q-1.53-7.78-2.31-17.14c-.6-7.24-1.6-14.41-2.5-21.68q-.84-6.8-1.55-15.18-.65-7.74-2.1-16.02-.86-4.89-1.23-10.53c-.55-8.21-2.32-16.26-3.09-24.27-.52-5.47-1.64-10.79-2.79-16.13-.85-3.97-1.15-7.97-2.24-11.88q-1.2-4.36-2.03-8.71c-.75-3.94-2.58-7.76-3.51-11.81-.72-3.1-2.19-5.9-2.95-9.06-.78-3.21-2.59-6.29-3.76-9.47-6.71-18.28-22.18-32.17-35.49-45.81q-9.82-10.07-14.41-17.52-5.27-8.57-6.88-13.12-1.73-4.87-3.61-9.55c-.68-1.71-1.87-2.9-2.89-4.42q-1.01-1.52-2.98-2.09c-5.8-1.67-11.73-.28-17.6-1.62q-5.32-1.21-10.38-3.28c-2.58-1.05-5.18-1.46-7.72-2.56q-2.73-1.2-5.61-1.93c-2.97-.75-5.61-2.43-8.6-3.27-3.58-1.01-6.92-2.84-10.49-4.15q-7.39-2.73-14.51-6.8-1.44-.82-2.73-2.05-.65-.62-.8.26l-.13.74q-.09.52-.5.86-3.96 3.29-7.51 3.9c-7.73 1.35-15.95 1.5-24.27.99q-11.54-.71-23.63-.96-3.63-.08-7.72-1.34-8.67-2.67-17.41-6.72c-4.03-1.87-8.21-3.05-12.38-4.46-5.24-.98-12.73-1.4-17.65.76-2.74 1.21-5.54 1.96-8.19 3.43q-8.63 4.8-15.62 7.78-7.28 3.1-15.32 3.3-4.94.12-10.42-.06c-3.45-.11-6.8.24-10.26.48-4.48.32-9.37 2.73-12.7 5.56q-5.87 5-13.87 13.7-7.53 8.19-15.76 14.19-5.73 4.18-17.21 10.21c-3.3 1.74-6.28 3.72-9.53 5.52q-14.69 8.16-27.33 14.97c-6.22 3.34-12.57 6.6-19.03 9.34-28.66 12.12-63.08 25.52-72.62 57.7q-1.83 6.18-1.99 11.7c-.23 7.54-.23 15.14 1.22 22.4q.76 3.84 1.36 7.67.89 5.63 2.12 11.45 6.55 30.91 3.61 61.7-.66 6.82-1.33 13.64c-.74 7.5-2.6 14.44-4.16 21.56-.7 3.17-1.84 6.01-2.63 9.09q-.85 3.26-2.01 6.66-2.62 7.62-5.24 16.2c-1.26 4.11-2.95 8.12-3.93 12.54q-.53 2.4-1.53 4.81-.12.29-.41.18-.25-.1-.23-.37-5.8-9.46-11.47-19.08-21.71-36.86-32.39-76.79c-1.39-5.18-3.37-10.14-4.49-15.36-.59-2.75-1.81-5.29-2.39-8.14q-.94-4.69-2.81-9.88c-.86-2.42-1.08-5.33-1.9-7.89q-1.23-3.84-2.05-7.91c-1.01-5.06-2.7-9.84-3.62-14.86-.94-5.18-2.39-9.96-3.18-15.15q-.47-3.1-1.12-6.25-5.38-26.25-3.47-47.17c.67-7.38.96-14.15 2.27-20.61q1.15-5.73 2.09-11.48c.87-5.33 2.25-10.31 3.22-15.53.93-4.99 2.51-9.66 3.5-14.48.83-4 2.31-7.65 3.29-11.54q.8-3.13 2.12-6.11c1.22-2.74 1.69-5.58 2.87-8.32 1.37-3.17 2.18-6.45 3.46-9.71q2.76-7.01 4.98-14.62c1.01-3.47 2.39-6.93 3.16-10.36 1.43-6.39 2.99-12.54 3.63-19.41q1.94-20.72-.02-41.45c-.63-6.6-1.93-12.22-3.2-18.55-.86-4.34-2.44-8.45-3.82-12.64q-2.35-7.16-6.38-13.51-.84-1.33.74-1.38 2.87-.1 6.1 1.24c8.98 3.74 15.77 10.72 22.82 17.31 1.95 1.83 4.22 3.15 6.22 4.93a.38.38 0 0 0 .63-.29c-.21-6.68-1.51-13.02-2.25-19.46-.61-5.35-1.96-10.31-2.98-15.53-.99-5.07-1.77-10.3-2.8-15.49q-1.13-5.72-1.4-12.75-.45-12.17.22-23.72c.43-7.42 1.83-14.27 2.69-21.54q.85-7.17 2.04-14.52 1.18-7.27 2.14-14.55.02-.1.04-.01 1.63 6.73 2.92 13.68c.95 5.09 2.65 10.22 3.94 15.13q2.36 8.99 6.59 19.33c4.98 12.12 12.33 25.11 23.75 31.35q.54.3.38-.3c-1.45-5.63-3.68-10.95-4.25-16.93q-1.04-11.01-.15-22.47.48-6.17 2.5-15.29 1.71-7.74 3.42-15.14.6-2.58.97-5.09c.81-5.47 2.55-10.75 3.35-16.07.74-4.94 2.24-9.44 3.27-14.2q.71-3.28 1.93-6.46c1.46-3.81 2.36-7.82 4.41-11.37q.76-1.31.92.19c.6 5.62.6 11.47.18 17.09q-1.07 14.3-.41 24.95.36 5.81 3.49 12.79 4.7 10.48 14.9 16.23c7.61 4.29 17.95 3.77 25.85.65q14.83-5.84 26.53-16.47c8.06-7.33 12.13-17.91 9.14-28.62-1.15-4.13-2.73-8.03-5.05-11.68-8.51-13.44-22.35-25.41-36.16-33.34-3.64-2.1-7.52-3.5-11.49-4.88q-1.3-.44.07-.47c11.23-.17 22.74.31 33.85 2.05 4.45.7 9.06.87 13.53 1.88q6.85 1.53 13.26 3.25 22.38 5.97 41.31 19.96c1.23.92 2.22 1.76 3.21 2.92q.67.79.71-.24c.16-3.96-.94-8-1.52-11.89q-.48-3.21-1.48-6.45-7.89-25.61-26.04-46.38-6.06-6.93-13.09-12.51Q509.74 5.91 494.97 2q-3.23-.85-11.46-1.03-.13 0-.14-.13V.72q-.02.05.04.05 16.99-.41 43.34.47 14.22.47 30.76-1.24Zm102.51 350.45c-1.06-.98-2.23-1.74-3.25-2.79q-4.13-4.24-8.62-8.33c-2.78-2.52-5.02-5.6-7.67-8.26q-3.02-3.05-5.55-6.24-18.4-23.17-28.48-46.26-9.36-21.46-14.71-47.19-.63-3.02-3.33-13.3-3.6-13.73-9.13-27.48c-1.37-3.4-3.22-6.82-5.01-10.1q-9.28-16.93-27.4-22.22c-1.16-.34-2.36-.28-3.37-.97a.53.53 0 0 1 .2-.95q8.84-1.74 17.05-2.65c15.65-1.75 31.46-3.25 47.17-1.45q4.88.57 9.37 1.02c6.7.68 13.24 2.6 19.6 4.95 15.05 5.56 25.69 17.25 37.91 26.96q5.06 4.01 8.63 8.75 8.36 11.08 12.22 20.43 5.33 12.94 7.59 22.86 1.05 4.6 2.15 8.76c1.36 5.17 2.09 10.82 3.76 16.22 1.26 4.03 1.86 8.13 3.18 12.22.99 3.08 1.25 6.12 2.38 9.25q1.13 3.12 2.02 6.19 5.64 19.42 14.95 37.5 8.25 16.05 22.03 26.34 4.54 3.4.54-.62c-1.1-1.1-2.69-1.91-3.78-3.07q-5.81-6.15-7.76-9.27-11.96-19.14-17.82-39-1.58-5.32-3.28-10.78c-1.09-3.47-1.53-7.04-2.63-10.47q-1.14-3.56-1.92-7.44-.68-3.42-1.86-7.24c-1.51-4.86-2.25-10.14-3.72-15.14-.77-2.59-.79-5.28-1.41-7.89q-1.77-7.47-4.06-16.3-2.11-8.16-5.76-15.5-15.56-31.31-45.21-49.12-21.17-12.73-41.71-18.52-12.73-3.6-26.36-6.53-.4-.08-.79.02-.46.12-.02.28 3.64 1.32 6.99 2.15c5.37 1.34 10.72 3.23 15.84 5q2.7.94 5.14 2.37.79.47-.13.4-10.86-.78-24.73-.35-8.36.26-15.99 1.72-6.34 1.21-12.65 2.23c-4 .65-7.83 2.28-11.91 2.99q-3.26.58-6.31 2.2c-1.07.57-2.3.6-3.42.97q-.8.26.02.45c1.51.33 3.03.27 4.49.89 3.53 1.5 7.03 2.29 10.48 4.26q7.5 4.31 12.38 11.13 3.32 4.63 5.51 9.59 5.04 11.45 8.43 23.39c1.25 4.39 2.21 9.99 3.65 15.01q.92 3.2 1.48 6.87.54 3.59 1.61 7.01c.85 2.7 1.04 5.63 1.82 8.35q2.07 7.26 4.13 14.63 2.34 8.4 6.51 17.65 3.28 7.27 6.79 13.93 15.93 30.28 41.25 52.2 5.77 5 12.25 9.32.16.11.34.12.17.01.35.03.86.08.32-.59-.15-.19-.37-.31-.22-.11-.41-.28ZM443.64 157.72q-.01.23.05.44.03.14.12.25 5.89 7.43 17.19 14.38 11.8 7.25 24.13 9.12c9.5 1.44 20.99-.75 27.99-7.65q.29-.29.04-.61l-.16-.2q-.13-.16-.31-.05-4.2 2.78-8.17 3.58c-8.41 1.7-17.16.87-25.28-1.89q-11.37-3.87-21.03-9.87-6.93-4.3-13.96-8.35a.51.51 0 0 0-.73.25q-.12.3.06.46.06.05.06.14Zm302.12 70.14q-2.22 11.97-.44 23.41 1.05 6.76 2.17 13.07c.93 5.2 2.34 10.59 3.86 15.64q3.88 12.86 9.9 26.78 7.78 17.97 21.6 40.39c1.97 3.2 4.51 5.86 6.66 8.85q.11.15.3.13.18-.03.23-.16.07-.19-.02-.37-3.86-7.92-7.68-15.45-5.08-10.04-7.51-15.36-10.81-23.68-18.92-48.21c-1.16-3.49-1.87-6.98-2.98-10.48q-1.16-3.68-2.01-7.84-2.49-12.28-2.82-16.43-.72-9.11-.25-19.55.11-2.41-.64-.12-.89 2.72-1.45 5.7ZM697.25 362.7q1.24.95 1.76-.63a.96.96 0 0 0-.31-1.05q-8.38-6.8-14.16-14.29-7.28-9.43-13.35-21.73-8.81-17.88-13.57-38.55c-1.34-5.82-1.95-11.62-2.46-17.33q-1.2-13.48 2.59-27.14.06-.23-.17-.31h-.01q-.21-.07-.28.15c-1.33 4.12-3.63 8.16-4.25 12.43q-2.26 15.63-1.12 24.28.64 4.88 1.23 10.17c.46 4.22 1.8 8.07 2.81 12.15q.86 3.48 2.19 7.21 1.31 3.63 2.7 7.16 6.77 17.2 18.53 31.8c4.62 5.74 10.21 10.67 16.33 15.02q.31.22.68.28.48.08.86.38Zm105.51 7.82q-1.72-5.02-3.94-9.86c-.57-1.25-.57-2.82-1.18-4.12q-2.14-4.52-3.11-9.05c-.66-3.11-2.21-5.98-2.86-9.04q-1-4.72-2.18-9.37c-1.52-6.06-2.26-12.2-3.48-18.34q-.95-4.73-1.38-9.13-.99-10.07-2.34-20.34c-.94-7.13-1.12-14.44-2.05-21.61q-.36-2.79-.66.01-2.12 20.1-.21 39.83c.45 4.6 1.38 9.06 1.7 13.67.41 6.09 2.16 11.81 3.29 17.77q.63 3.28 2.06 7.58 2.07 6.18 4.46 12.61c1.21 3.24 2.94 6.05 4.04 9.3.72 2.15 2.27 3.73 3.19 5.79 1.29 2.91 3.2 5.41 5.23 7.83q1.02 1.23.88-.36c-.1-1.14-1.09-2.09-1.46-3.17ZM519.9 421.17q2.18-1.02 4.24-1.99.3-.14.34-.48.02-.15.06-.3a.88.87-85.7 0 1 .71-.62q1-.14 1.56-.83.29-.37.77-.39c.89-.03 1.66-.27 2.28-.95q1.73-1.89 3.72-3.12.48-.29.72-.8.62-1.27 1.59-1.97 1.96-1.42 3.58-3 .06-.06.16-.07.14-.03.29-.01.31.05.53-.18 1.35-1.38 3.14-2.29a.04.03-29.4 0 0 .02-.05l-.14-.23q-.13-.21-.34-.07-3.77 2.52-7.65 5.02-.33.22-.51.5-.26.43-.74.6-.96.34-1.65 1.08-.69.73-1.59 1.23-11.73 6.53-14.49 7.37-2.76.84-5.29 1.97-2.1.94-4.53 1.41-2.54.5-4.99 1.33-7.88 2.69-16.68 2.43c-5.34-.16-10.86-.13-16.16-1.3q-13.9-3.08-24.97-10.94-12.84-9.11-22.95-22.61-13.68-18.25-23.5-42.4-9.4-23.12-14.05-46.91-2.28-11.63-3.85-23.64-.01-.13-.14-.12h-.01q-.11.01-.11.13c.15 8.76.19 16.98 1.76 25.94q1.35 7.67 2.81 15.3 2.7 14.05 9.93 33.27 5.51 14.62 12.66 26.64c11.21 18.85 25.02 34.72 44.77 44.61 2.58 1.3 5.17 2.08 7.82 3.12q2.94 1.15 6.09 1.73 9.43 1.75 13.93 1.79 5.94.04 16.08-1.46c5.04-.75 9.5-2.52 14.18-4.16 1.55-.55 2.79-1.41 4.44-1.88q1.65-.48 3.13-1.23 1.41-.71 3.03-1.47Zm202.14-61.73c-2.59-1.45-5.4-2.91-7.68-4.8-3.08-2.54-6.51-4.88-9.15-7.6q-11.67-12-17.29-27.73c-1.86-5.2-3.79-11.53-4.86-17.51q-1.26-7.04-2.85-13.76-.34-1.43-.39.03-.18 5.16-.26 10.47-.32 21.14 11.01 38.79c4.46 6.95 10.21 11.8 16.95 16.43 2.67 1.84 5.69 3.06 8.59 4.35q2.67 1.19 5.8 1.68 1.06.17.13-.35Zm-305.47-38.59c1.16 1.51 2.6 2.98 3.9 4.38q30.74 32.97 72.68 48.26c4.97 1.81 10.04 3.01 15.09 4.69 2.36.79 4.84 1.13 7.27 1.52q1.45.24 5.52 1.03 8.95 1.74 18.7 1.6 13.79-.19 24.71-2.56 3.81-.82 7.41-2.27 3.74-1.5 7.16-3.16.99-.48-.08-.72-.71-.17-1.37.27-.74.49-1.6.65-5.98 1.15-11.77 2.52c-12.44 2.95-24.63 2.35-37.08-.2-4.14-.85-8.1-1.09-12.27-2.19q-11.27-2.97-20.76-6.65-35.81-13.9-65.17-38.59-11.65-9.8-21.98-22.7-.08-.1-.17-.02l-.22.17q-.18.14-.05.33 4.71 6.66 10.08 13.64Z"/><path fill="#fff" d="M569.26 0H1343v1561h-4.15q1.19-.47 2.34-.24a.78.77 83.2 0 0 .85-1.09l-7.8-16.8q-2.47-6.38-4.75-13.03-3.2-9.27-4.64-13.08-12.8-33.77-28.6-67.42-9.65-20.56-18.81-34.89c-6.38-9.97-15.54-16.45-25.82-23.04q-14.92-9.56-31.28-16.47-2.34-8.47-3.64-16.88-.85-5.51-2.24-9.99-2.83-9.11-5.66-17.95c-3.39-10.56-9.06-18.45-19.41-23.14q-8.49-3.84-24-7.25-2.76-.61-5.14-1.42c-4.32-1.47-8.49-2.68-12.69-4.63-12.78-5.93-20.48-17.91-24.35-31.98q-2.9-10.53-5.88-21.06-2.06-7.29-6.32-13.81c-6.18-9.44-17.76-15.7-29.3-15.7q-7.24.01-13.08 1.2-10.99 2.25-25 7.16-15.86 5.56-33.75 13.49-4.74 2.11-9.66 4.17-1.31-16.86-3.13-33.38-.6-5.43-1.49-10.42c-1.12-6.22-2-12.34-3.69-18.5q-.94-3.42-2.15-8.03-3.6-13.71-11.42-27.21c-7.9-13.63-20.01-22.32-36.5-21.18q-.58.04-.57-.53.22-10.8-2.62-19.62-4.59-14.31-16.49-26.86-14.39-15.18-34.46-20.59-2.2-.59-7.74-.84.45-2 .51-5.24.43-22.34 1.72-52.26.45-10.52 1.38-19.96c1.25-12.61 3.02-25.26 6.24-37.5q.67-2.56 2.41-4.82 11.13-14.49 19.9-28.94 6.78-11.16 10.86-21.09 2.87-6.98 5.38-16.2 3.75-13.79 6.57-28.5.36-1.88 1.56-2.52 16.63-23.7 29.39-48.8 5.91-11.62 10.07-22.72 2.67-7.09 3.82-13.15c.99-5.24 1.49-12.83-.82-17.99q-7.54-16.83-23.59-26.48-.4-.24-.46-.7-.02-.22.08-.36 8.88-12.46 15.05-26.49 5.79-13.19 9.18-24.62 1.22-4.11 2.48-8.1c1.64-5.21 2.69-10.47 4.35-15.73 1.04-3.31 1.29-6.7 2.32-9.98 1.54-4.9 2.07-9.87 3.45-14.73q1.66-5.82 2.66-11.55c.54-3.08 1.72-6 2.26-9.09.99-5.64 2.85-11.07 4.32-16.64q1.64-6.22 3.7-12.59 1.75-5.41 2.89-10.65c1.04-4.82 2.19-9.53 2.91-14.48 1.37-9.34 3.04-18.35 3.59-27.79q2.04-34.74 1.48-50.58-.82-23.25-1.92-46.24-.34-6.87-4.1-35.86c-.39-2.93-1.46-6.99-1.96-10.51q-.9-6.41-2.75-12.79c-.68-2.39-1.02-4.8-1.61-7.2q-6.34-25.62-16.34-50.62-10.22-25.55-24.27-48.38c-11.93-19.39-26.57-35.71-43.79-50.47q-14.96-12.81-33.69-28.49-6.91-5.79-14.38-13.78-9.56-10.23-19.05-20.19-21.73-22.82-30.53-52.78-2.13-7.24-3.83-17.47-1.9-11.41-2.26-18.01-.67-12.11-.37-24.36.08-2.96-1.86-.72-14.9 17.22-22.97 40.25-1.63 4.64-2.65 9.13c-.97 4.23-2.43 8.3-2.89 12.76q-.73 7.06-1.46 13.72a.35.34 19.5 0 1-.53.25q-4.93-3.18-8.37-6.87-6.66-7.17-13-13.87c-7.19-7.6-16.75-12.09-26.59-16.53q-10.76-4.85-19.19-9.39-1.97-1.06-.48.61 3.39 3.81 4.91 8.6 4.4 13.84 2.52 24.72c-1.15 6.7-1.89 13.52-4.06 20.01q-.21.97-1.15.83-.41-.06-.93-.83-3.39-12.93-9.79-21.81-22.07-30.62-54.63-48.11-10.94-5.87-20.79-9.9c-7.54-3.08-15.3-6.06-23.06-8.25q-17.15-4.83-21.05-5.26Q578.01.96 569.26 0Z"/><path fill="#9c6747" d="M716.07 95.26q.52.77.93.83.94.14 1.15-.83l.13.37q.18.51.72.55 14.98 1.27 25.17 3.24 6.54 1.27 13.28 2.79c5.53 1.25 10.74 2.98 15.99 4.82q30.21 10.58 53.15 31 14.85 13.22 23.7 29.33 5.05 9.2 7.78 18.29 1.11 3.68 2.66 7.64c2.36 5.98 4.48 11.91 7.11 17.68 2.03 4.46 3.84 8.87 6.04 13.25q3.26 6.51 6.28 12.08 3.44 6.34 9.07 13.15.1.13-.01.24h-.01q-.1.1-.21.01-1.57-1.25-2.7-2.62-5.6-6.84-9.85-14.1-1.42-2.43-2.95-4.91-1.7-2.76-3.19-6-1.29-2.81-2.94-5.74c-2.58-4.59-4.41-9.62-6.69-14.41q-2.13-4.46-3.65-8.62-2.67-7.29-5.45-13.78-4.9-11.43-13.2-21.86-16.9-21.21-42.11-34.49-12.99-6.84-26.9-11.68-3.31-1.15-6.58-2.01c-3.05-.8-5.92-1.95-8.98-2.6-7.97-1.69-15.66-3.54-23.97-4.32-11.27-1.06-22.17-2.25-33.53-1.46q-12.45.88-25.5 1.66c-6.91.41-13.66 1.61-20.69 2.57q-5.84.8-10.92 2.09c-4.95 1.26-9.75 2.18-14.65 3.77-9.7 3.13-18.13 6.26-26.78 11.48-2.9 1.75-5.16 4.18-7.83 6.2-1.25.95-1.94 2.37-3.31 3.16q-.94.55-.25-.3 5.87-7.2 12.38-11.04 11.44-6.74 21.3-10.01 3.4-1.12 6.63-2.27 3.3-1.18 6.86-2.12 14.8-3.9 26.15-5.9 9.26-1.64 23.47-3.12c10.86-1.14 21.59-.95 32.32-1.31q.36-.01.45-.36.05-.18.13-.34Z"/><path fill="#9c6747" d="M660.43 350.73q.22.12.37.31.54.67-.32.59-.18-.02-.35-.03-.18-.01-.34-.12-6.48-4.32-12.25-9.32-25.32-21.92-41.25-52.2-3.51-6.66-6.79-13.93-4.17-9.25-6.51-17.65-2.06-7.37-4.13-14.63c-.78-2.72-.97-5.65-1.82-8.35q-1.07-3.42-1.61-7.01-.56-3.67-1.48-6.87c-1.44-5.02-2.4-10.62-3.65-15.01q-3.39-11.94-8.43-23.39-2.19-4.96-5.51-9.59-4.88-6.82-12.38-11.13c-3.45-1.97-6.95-2.76-10.48-4.26-1.46-.62-2.98-.56-4.49-.89q-.82-.19-.02-.45c1.12-.37 2.35-.4 3.42-.97q3.05-1.62 6.31-2.2c4.08-.71 7.91-2.34 11.91-2.99q6.31-1.02 12.65-2.23 7.63-1.46 15.99-1.72 13.87-.43 24.73.35.92.07.13-.4-2.44-1.43-5.14-2.37c-5.12-1.77-10.47-3.66-15.84-5q-3.35-.83-6.99-2.15-.44-.16.02-.28.39-.1.79-.02 13.63 2.93 26.36 6.53 20.54 5.79 41.71 18.52 29.65 17.81 45.21 49.12 3.65 7.34 5.76 15.5 2.29 8.83 4.06 16.3c.62 2.61.64 5.3 1.41 7.89 1.47 5 2.21 10.28 3.72 15.14q1.18 3.82 1.86 7.24.78 3.88 1.92 7.44c1.1 3.43 1.54 7 2.63 10.47q1.7 5.46 3.28 10.78 5.86 19.86 17.82 39 1.95 3.12 7.76 9.27c1.09 1.16 2.68 1.97 3.78 3.07q4 4.02-.54.62-13.78-10.29-22.03-26.34-9.31-18.08-14.95-37.5-.89-3.07-2.02-6.19c-1.13-3.13-1.39-6.17-2.38-9.25-1.32-4.09-1.92-8.19-3.18-12.22-1.67-5.4-2.4-11.05-3.76-16.22q-1.1-4.16-2.15-8.76-2.26-9.92-7.59-22.86-3.86-9.35-12.22-20.43-3.57-4.74-8.63-8.75c-12.22-9.71-22.86-21.4-37.91-26.96-6.36-2.35-12.9-4.27-19.6-4.95q-4.49-.45-9.37-1.02c-15.71-1.8-31.52-.3-47.17 1.45q-8.21.91-17.05 2.65a.53.53 0 0 0-.2.95c1.01.69 2.21.63 3.37.97q18.12 5.29 27.4 22.22c1.79 3.28 3.64 6.7 5.01 10.1q5.53 13.75 9.13 27.48 2.7 10.28 3.33 13.3 5.35 25.73 14.71 47.19 10.08 23.09 28.48 46.26 2.53 3.19 5.55 6.24c2.65 2.66 4.89 5.74 7.67 8.26q4.49 4.09 8.62 8.33c1.02 1.05 2.19 1.81 3.25 2.79q.19.17.41.28ZM443.58 157.58q-.18-.16-.06-.46a.51.51 0 0 1 .73-.25q7.03 4.05 13.96 8.35 9.66 6 21.03 9.87c8.12 2.76 16.87 3.59 25.28 1.89q3.97-.8 8.17-3.58.18-.11.31.05l.16.2q.25.32-.04.61c-7 6.9-18.49 9.09-27.99 7.65q-12.33-1.87-24.13-9.12-11.3-6.95-17.19-14.38-.09-.11-.12-.25-.06-.21-.05-.44 0-.09-.06-.14ZM745.76 227.86q.56-2.98 1.45-5.7.75-2.29.64.12-.47 10.44.25 19.55.33 4.15 2.82 16.43.85 4.16 2.01 7.84c1.11 3.5 1.82 6.99 2.98 10.48q8.11 24.53 18.92 48.21 2.43 5.32 7.51 15.36 3.82 7.53 7.68 15.45.09.18.02.37-.05.13-.23.16-.19.02-.3-.13c-2.15-2.99-4.69-5.65-6.66-8.85q-13.82-22.42-21.6-40.39-6.02-13.92-9.9-26.78c-1.52-5.05-2.93-10.44-3.86-15.64q-1.12-6.31-2.17-13.07-1.78-11.44.44-23.41Z"/><path fill="#9c6747" d="M696.39 362.32q-.37-.06-.68-.28c-6.12-4.35-11.71-9.28-16.33-15.02q-11.76-14.6-18.53-31.8-1.39-3.53-2.7-7.16-1.33-3.73-2.19-7.21c-1.01-4.08-2.35-7.93-2.81-12.15q-.59-5.29-1.23-10.17-1.14-8.65 1.12-24.28c.62-4.27 2.92-8.31 4.25-12.43q.07-.22.28-.15h.01q.23.08.17.31-3.79 13.66-2.59 27.14c.51 5.71 1.12 11.51 2.46 17.33q4.76 20.67 13.57 38.55 6.07 12.3 13.35 21.73 5.78 7.49 14.16 14.29a.96.96 0 0 1 .31 1.05q-.52 1.58-1.76.63-.38-.3-.86-.38ZM802.76 370.52c.37 1.08 1.36 2.03 1.46 3.17q.14 1.59-.88.36c-2.03-2.42-3.94-4.92-5.23-7.83-.92-2.06-2.47-3.64-3.19-5.79-1.1-3.25-2.83-6.06-4.04-9.3q-2.39-6.43-4.46-12.61-1.43-4.3-2.06-7.58c-1.13-5.96-2.88-11.68-3.29-17.77-.32-4.61-1.25-9.07-1.7-13.67q-1.91-19.73.21-39.83.3-2.8.66-.01c.93 7.17 1.11 14.48 2.05 21.61q1.35 10.27 2.34 20.34.43 4.4 1.38 9.13c1.22 6.14 1.96 12.28 3.48 18.34q1.18 4.65 2.18 9.37c.65 3.06 2.2 5.93 2.86 9.04q.97 4.53 3.11 9.05c.61 1.3.61 2.87 1.18 4.12q2.22 4.84 3.94 9.86ZM519.9 421.17q-1.62.76-3.03 1.47-1.48.75-3.13 1.23c-1.65.47-2.89 1.33-4.44 1.88-4.68 1.64-9.14 3.41-14.18 4.16q-10.14 1.5-16.08 1.46-4.5-.04-13.93-1.79-3.15-.58-6.09-1.73c-2.65-1.04-5.24-1.82-7.82-3.12-19.75-9.89-33.56-25.76-44.77-44.61q-7.15-12.02-12.66-26.64-7.23-19.22-9.93-33.27-1.46-7.63-2.81-15.3c-1.57-8.96-1.61-17.18-1.76-25.94q0-.12.11-.13h.01q.13-.01.14.12 1.57 12.01 3.85 23.64 4.65 23.79 14.05 46.91 9.82 24.15 23.5 42.4 10.11 13.5 22.95 22.61 11.07 7.86 24.97 10.94c5.3 1.17 10.82 1.14 16.16 1.3q8.8.26 16.68-2.43 2.45-.83 4.99-1.33 2.43-.47 4.53-1.41 2.53-1.13 5.29-1.97 2.76-.84 14.49-7.37.9-.5 1.59-1.23.69-.74 1.65-1.08.48-.17.74-.6.18-.28.51-.5 3.88-2.5 7.65-5.02.21-.14.34.07l.14.23a.04.03-29.4 0 1-.02.05q-1.79.91-3.14 2.29-.22.23-.53.18-.15-.02-.29.01-.1.01-.16.07-1.62 1.58-3.58 3-.97.7-1.59 1.97-.24.51-.72.8-1.99 1.23-3.72 3.12c-.62.68-1.39.92-2.28.95q-.48.02-.77.39-.56.69-1.56.83a.88.87-85.7 0 0-.71.62q-.04.15-.06.3-.04.34-.34.48-2.06.97-4.24 1.99Z"/><path fill="#9c6747" d="M714.36 354.64c2.28 1.89 5.09 3.35 7.68 4.8q.93.52-.13.35-3.13-.49-5.8-1.68c-2.9-1.29-5.92-2.51-8.59-4.35-6.74-4.63-12.49-9.48-16.95-16.43q-11.33-17.65-11.01-38.79.08-5.31.26-10.47.05-1.46.39-.03 1.59 6.72 2.85 13.76c1.07 5.98 3 12.31 4.86 17.51q5.62 15.73 17.29 27.73c2.64 2.72 6.07 5.06 9.15 7.6ZM420.47 325.23c-1.3-1.4-2.74-2.87-3.9-4.38q-5.37-6.98-10.08-13.64-.13-.19.05-.33l.22-.17q.09-.08.17.02 10.33 12.9 21.98 22.7 29.36 24.69 65.17 38.59 9.49 3.68 20.76 6.65c4.17 1.1 8.13 1.34 12.27 2.19 12.45 2.55 24.64 3.15 37.08.2q5.79-1.37 11.77-2.52.86-.16 1.6-.65.66-.44 1.37-.27 1.07.24.08.72-3.42 1.66-7.16 3.16-3.6 1.45-7.41 2.27-10.92 2.37-24.71 2.56-9.75.14-18.7-1.6-4.07-.79-5.52-1.03c-2.43-.39-4.91-.73-7.27-1.52-5.05-1.68-10.12-2.88-15.09-4.69q-41.94-15.29-72.68-48.26Z"/><path fill="#fed6a5" d="M670.78 356.37q-1.22.13-1.42.73a.63.63 0 0 0 .32.76q2.47 1.19 2.45 3.16-.08 7.63-.09 14.98-.05 334.87-.02 667.25.01 10.4.42 13.51-8.34.6-17.19-.99-14.07-2.52-26.64-6.21-11.43-3.36-28.76-9.83c-16.84-6.28-31.74-13.58-46.73-23.24q-37.08-23.9-67.37-51.19-16.28-14.66-33.25-34.57-.17-.2-.41-.1-.21.08-.22.35c-.96-1.64-1.41-3.46-2.53-5.02-11.22-15.66-22.42-32.26-29.09-49.89q-2.91-7.69-5.64-19.26-2.69-11.41-5.03-22.31-.23-1.06-1.1-1.89.17-.15.31-.48.11-.27.06-.57-.67-3.61-1.38-6.78c-1.19-5.28-1.61-10.7-2.73-15.97q-.93-4.4-1.5-9.21c-.93-7.88-2.82-15.47-3.67-23.36q-.63-5.91-1.69-12.62-.9-5.67-1.64-12.77c-1.03-9.75-2.52-19.13-3.35-29.17q-.7-8.54-1.84-17.04-.21-1.63-.95-1.13l.02-1.03q-.02.27.23.37.29.11.41-.18 1-2.41 1.53-4.81c.98-4.42 2.67-8.43 3.93-12.54q2.62-8.58 5.24-16.2 1.16-3.4 2.01-6.66c.79-3.08 1.93-5.92 2.63-9.09 1.56-7.12 3.42-14.06 4.16-21.56q.67-6.82 1.33-13.64 2.94-30.79-3.61-61.7-1.23-5.82-2.12-11.45-.6-3.83-1.36-7.67c-1.45-7.26-1.45-14.86-1.22-22.4q.16-5.52 1.99-11.7c9.54-32.18 43.96-45.58 72.62-57.7 6.46-2.74 12.81-6 19.03-9.34q12.64-6.81 27.33-14.97c3.25-1.8 6.23-3.78 9.53-5.52q11.48-6.03 17.21-10.21 8.23-6 15.76-14.19 8-8.7 13.87-13.7c3.33-2.83 8.22-5.24 12.7-5.56 3.46-.24 6.81-.59 10.26-.48q5.48.18 10.42.06 8.04-.2 15.32-3.3 6.99-2.98 15.62-7.78c2.65-1.47 5.45-2.22 8.19-3.43 4.92-2.16 12.41-1.74 17.65-.76Z"/><path fill="#ffe0b4" d="M670.78 356.37c4.17 1.41 8.35 2.59 12.38 4.46q8.74 4.05 17.41 6.72 4.09 1.26 7.72 1.34 12.09.25 23.63.96c8.32.51 16.54.36 24.27-.99q3.55-.61 7.51-3.9.41-.34.5-.86l.13-.74q.15-.88.8-.26 1.29 1.23 2.73 2.05 7.12 4.07 14.51 6.8c3.57 1.31 6.91 3.14 10.49 4.15 2.99.84 5.63 2.52 8.6 3.27q2.88.73 5.61 1.93c2.54 1.1 5.14 1.51 7.72 2.56q5.06 2.07 10.38 3.28c5.87 1.34 11.8-.05 17.6 1.62q1.97.57 2.98 2.09c1.02 1.52 2.21 2.71 2.89 4.42q1.88 4.68 3.61 9.55 1.61 4.55 6.88 13.12 4.59 7.45 14.41 17.52c13.31 13.64 28.78 27.53 35.49 45.81 1.17 3.18 2.98 6.26 3.76 9.47.76 3.16 2.23 5.96 2.95 9.06.93 4.05 2.76 7.87 3.51 11.81q.83 4.35 2.03 8.71c1.09 3.91 1.39 7.91 2.24 11.88 1.15 5.34 2.27 10.66 2.79 16.13.77 8.01 2.54 16.06 3.09 24.27q.37 5.64 1.23 10.53 1.45 8.28 2.1 16.02.71 8.38 1.55 15.18c.9 7.27 1.9 14.44 2.5 21.68q.78 9.36 2.31 17.14c.63 3.25.68 6.88 1.51 10.18q1.31 5.24 2.32 10.18.81 3.97 2.04 8.02 1.23 3.98 2.45 8.04 1.16 3.84 6.16 13.14-.66 12.12-2.14 24.06-.86 6.91-1.81 15.74-.85 7.89-2.13 15.73c-.92 5.66-1.26 11.64-2.26 17.35-1.54 8.78-2.2 17.43-4.06 26.12q-.63 2.93-1.87 11.29-.7 4.74-2.3 11.25-.9 3.67-.51 8.71-1.2.64-1.56 2.52-2.82 14.71-6.57 28.5-2.51 9.22-5.38 16.2-4.08 9.93-10.86 21.09-8.77 14.45-19.9 28.94-1.74 2.26-2.41 4.82c-3.22 12.24-4.99 24.89-6.24 37.5q-.93 9.44-1.38 19.96-1.29 29.92-1.72 52.26-.06 3.24-.51 5.24 1.71 14.15 1.96 22.51 1.24 42.14-1.57 83.76c-.43 6.27-1.26 12.45-1.53 18.81-.31 7.17-2.33 13.84-3.06 20.82-.85 8.03-2.86 15.6-3.94 23.84q-.76 5.77-2.14 11.75c-.73 3.14-.73 6.46-1.48 9.58q-1.76 7.37-2.91 14.59c-.84 5.23-2.15 10.29-3.09 15.5q-1.11 6.14-2.75 12.17c-.86 3.15-1.11 6.57-2.07 9.86q-.97 3.34-1.78 7.31-1.26 6.15-3.27 12.34-.79 1.24-4.37 3.12-27.61 14.52-50.71 20.56-18.09 4.73-28.44 6.47-7.82 1.32-15.65 2.44c-11.26 1.6-23.15 1.95-34.43 2.23q-11.01.27-33.94-1.3-5.94-.4-13.02-1.46-6.44-.96-12.99-1.99-13.09-2.06-33.5-7.21-35.65-8.98-76.03-27.18c-30.79-13.88-57.8-36.49-74.9-66.11q-.62-1.07-2.18-4.34 14.11-10.41 28.79-19.32 39.71-24.11 84.38-51.38 48.2-29.43 95.54-61.21 17.7-11.88 37.19-26.39 19.52-14.54 34.7-28.77 6.52-6.12 13.09-14.21c1.58-1.94 2.57-4.05 3.95-6.09q1.48-2.18-.95-1.13c-6.59 2.86-12.99 6.05-19.66 8.51-5.91 2.17-11.84 4.56-17.74 6.55q-7.49 2.53-15.06 4.82-12.08 3.65-27.9 6.4-7.6 1.32-16.06.92-.41-3.11-.42-13.51-.03-332.38.02-667.25.01-7.35.09-14.98.02-1.97-2.45-3.16a.63.63 0 0 1-.32-.76q.2-.6 1.42-.73Z"/><path fill="#efbe84" d="M953.57 702.71q.69.49 1.41.05-.1.14-.08.36.06.46.46.7 16.05 9.65 23.59 26.48c2.31 5.16 1.81 12.75.82 17.99q-1.15 6.06-3.82 13.15-4.16 11.1-10.07 22.72-12.76 25.1-29.39 48.8-.39-5.04.51-8.71 1.6-6.51 2.3-11.25 1.24-8.36 1.87-11.29c1.86-8.69 2.52-17.34 4.06-26.12 1-5.71 1.34-11.69 2.26-17.35q1.28-7.84 2.13-15.73.95-8.83 1.81-15.74 1.48-11.94 2.14-24.06ZM390.1 703.51q.74-.5.95 1.13 1.14 8.5 1.84 17.04c.83 10.04 2.32 19.42 3.35 29.17q.74 7.1 1.64 12.77 1.06 6.71 1.69 12.62c.85 7.89 2.74 15.48 3.67 23.36q.57 4.81 1.5 9.21c1.12 5.27 1.54 10.69 2.73 15.97q.71 3.17 1.38 6.78.05.3-.06.57-.14.33-.31.48-.84-.59-1.01-.83-20.1-28.68-33.56-58.24-5.35-11.74-7.55-19.86-.9-3.34-1.73-7.37c-1.36-6.73-.71-12.73 2.46-18.76q8.04-15.32 23.01-24.04ZM672.44 1056.76q8.46.4 16.06-.92 15.82-2.75 27.9-6.4 7.57-2.29 15.06-4.82c5.9-1.99 11.83-4.38 17.74-6.55 6.67-2.46 13.07-5.65 19.66-8.51q2.43-1.05.95 1.13c-1.38 2.04-2.37 4.15-3.95 6.09q-6.57 8.09-13.09 14.21-15.18 14.23-34.7 28.77-19.49 14.51-37.19 26.39-47.34 31.78-95.54 61.21-44.67 27.27-84.38 51.38-14.68 8.91-28.79 19.32-2.72-4.72-4.33-8.42c-4.94-11.42-8.72-23.51-10.83-35.82-2.48-14.51-3.61-29.01-2.64-43.32q1.08-15.93 3.29-40.5 1.69-5.22 2.44-11.46 2.62-21.78 2.51-42.09-.43-2.12.3-4.97.39-1.56-.65-1.64-.37-29.46-1.66-58.8-.44-9.98-1.32-17.54-1-8.71-1.98-17.48c-.77-6.84-2.82-13.62-3.94-20.31q-.3-1.78-1.49-4.73.01-.27.22-.35.24-.1.41.1 16.97 19.91 33.25 34.57 30.29 27.29 67.37 51.19c14.99 9.66 29.89 16.96 46.73 23.24q17.33 6.47 28.76 9.83 12.57 3.69 26.64 6.21 8.85 1.59 17.19.99Z"/><path fill="#d38f5e" d="M462.26 1049.84q1.04.08.65 1.64-.73 2.85-.3 4.97-1.52 6.9-1.99 13.84-.74 11.14-.75 11.23-1.04 10.62-1.97 21.23-.29 3.29-.24 7.25-2.21 24.57-3.29 40.5c-.97 14.31.16 28.81 2.64 43.32 2.11 12.31 5.89 24.4 10.83 35.82q1.61 3.7 4.33 8.42 1.56 3.27 2.18 4.34c17.1 29.62 44.11 52.23 74.9 66.11q40.38 18.2 76.03 27.18 20.41 5.15 33.5 7.21 6.55 1.03 12.99 1.99 7.08 1.06 13.02 1.46 22.93 1.57 33.94 1.3c11.28-.28 23.17-.63 34.43-2.23q7.83-1.12 15.65-2.44 10.35-1.74 28.44-6.47 23.1-6.04 50.71-20.56 3.58-1.88 4.37-3.12.19.33.58.4.27.04.63-.16 24.89-13.75 59.36-32.17 44.4-23.72 87.32-43.75 4.92-2.06 9.66-4.17 17.89-7.93 33.75-13.49 14.01-4.91 25-7.16 5.84-1.19 13.08-1.2c11.54 0 23.12 6.26 29.3 15.7q4.26 6.52 6.32 13.81 2.98 10.53 5.88 21.06c3.87 14.07 11.57 26.05 24.35 31.98 4.2 1.95 8.37 3.16 12.69 4.63q2.38.81 5.14 1.42 15.51 3.41 24 7.25c10.35 4.69 16.02 12.58 19.41 23.14q2.83 8.84 5.66 17.95 1.39 4.48 2.24 9.99 1.3 8.41 3.64 16.88-11.54-2.74-22.53-8.24-19.25-9.65-38.4-18.94c-1.94-.94-4.01-1.58-5.94-2.52-3.75-1.82-8.45-1.88-12.43-.82-11.08 2.95-21.05 9.77-29.32 17.47q-8.18 7.04-13.01 12.06-18.63 19.35-34.01 34.74-18.22 18.22-35.96 29.35-12.08 7.58-22.86 13.07-9.4 4.79-30.67 15-2.24 1.09-3.63 1.74-49.45 23.42-103.86 40.38c-20.11 6.27-39.44 11.1-61.08 15.93-3.88.86-7.8 1.3-11.64 2.17q-8.48 1.92-17.71 3.23c-6.9.97-13.7 2.45-20.63 3.07q-6.37.56-12.84 1.5c-8.52 1.23-17.17 1.64-25.82 1.83q-2.54.05-4.04.89-.2-.14-.34-.25a.98.96-26.4 0 0-.67-.22q-24.84 1.6-48.85.47-7.67-.36-25.45-1.48c-8.03-.51-16.08-1.96-24.05-2.73-7.29-.7-14.47-2.55-21.71-3.58-5.28-.75-10.25-2.27-15.36-3.27q-5.71-1.11-11.43-2.6-56.48-14.75-108.75-40.77-.83-.41-6.93-3.77-3.41-1.88-7.14-3.45-5.83-3.5-11.92-7.22-7.49-4.58-11.67-7.66c-29.41-21.69-47.21-53.79-56.17-89.35-1.4-5.56-2.95-11.49-3.9-17.13q-1.25-7.42-2.56-15.51-1.11-6.81-1.7-15.24-.65-9.08-1.6-19.09-1.06-11.16-1.72-47.13-.59-33.82.76-49.87 1.46-17.29 3.72-30.08.9-5.04 2.31-10.84c2.9-11.9 7.14-24.13 14.47-33.99q2.53-3.39 6.65-6.06 7.42-4.81 14.46-7.81 3.24-1.37 7-1.03.67.07.67-.61.01-2.53.18-5.15.94-14 8.46-26.28c11.23-18.33 29.88-32.77 51.54-35.31Z"/><path fill="#9c6747" d="M879.96 1049.99q5.54.25 7.74.84 20.07 5.41 34.46 20.59 11.9 12.55 16.49 26.86 2.84 8.82 2.62 19.62-.01.57.57.53c16.49-1.14 28.6 7.55 36.5 21.18q7.82 13.5 11.42 27.21 1.21 4.61 2.15 8.03c1.69 6.16 2.57 12.28 3.69 18.5q.89 4.99 1.49 10.42 1.82 16.52 3.13 33.38-42.92 20.03-87.32 43.75-34.47 18.42-59.36 32.17-.36.2-.63.16-.39-.07-.58-.4 2.01-6.19 3.27-12.34.81-3.97 1.78-7.31c.96-3.29 1.21-6.71 2.07-9.86q1.64-6.03 2.75-12.17c.94-5.21 2.25-10.27 3.09-15.5q1.15-7.22 2.91-14.59c.75-3.12.75-6.44 1.48-9.58q1.38-5.98 2.14-11.75c1.08-8.24 3.09-15.81 3.94-23.84.73-6.98 2.75-13.65 3.06-20.82.27-6.36 1.1-12.54 1.53-18.81q2.81-41.62 1.57-83.76-.25-8.36-1.96-22.51Z"/><path fill="#fff" d="M462.61 1056.45q.11 20.31-2.51 42.09-.75 6.24-2.44 11.46-.05-3.96.24-7.25.93-10.61 1.97-21.23.01-.09.75-11.23.47-6.94 1.99-13.84Z"/><path fill="#38475e" d="M352.04 1256.87q.66 35.97 1.72 47.13.95 10.01 1.6 19.09.59 8.43 1.7 15.24 1.31 8.09 2.56 15.51c.95 5.64 2.5 11.57 3.9 17.13 8.96 35.56 26.76 67.66 56.17 89.35q4.18 3.08 11.67 7.66 6.09 3.72 11.92 7.22 26.1 44.79 57.66 85.8H293.88q5.06-9.89 6.96-17.19 1.73-6.65 3.71-13.99c.39-1.45.39-3.01.83-4.4q2.03-6.52 3.44-12.7c.86-3.72 2.31-7.29 3.54-10.87.93-2.72 2.35-5.16 3.94-7.52q.99-1.48-.76-1.81c-5.28-1-10.16-2.86-15.32-4.37q-11.35-3.32-24.47-7.36-16.18-4.98-32.83-10.3-3.24-1.04-6.83-2.47a2.14 2.11 9.7 0 1-1.33-1.85q-1.06-19.16-2.45-38.38-.71-9.68-.94-19.91-.4-17.64-1.11-35.22c-.39-9.66-.44-19.54-.21-29.49q.14-6.06 1.83-15.11.08-.46.44-.76.45-.38-.34-.83c.52-.43.95-.63 1.27-1.28 4.06-8.24 12.34-13.42 20.38-17.8 23.16-12.62 49.04-24.26 70.95-35.33q12.31-6.21 27.46-15.19Z"/><path fill="#1b2943" d="M231.98 1326.47q.79.45.34.83-.36.3-.44.76-1.69 9.05-1.83 15.11c-.23 9.95-.18 19.83.21 29.49q.71 17.58 1.11 35.22.23 10.23.94 19.91 1.39 19.22 2.45 38.38a2.14 2.11 9.7 0 0 1.33 1.85q3.59 1.43 6.83 2.47 16.65 5.32 32.83 10.3 13.12 4.04 24.47 7.36c5.16 1.51 10.04 3.37 15.32 4.37q1.75.33.76 1.81c-1.59 2.36-3.01 4.8-3.94 7.52-1.23 3.58-2.68 7.15-3.54 10.87q-1.41 6.18-3.44 12.7c-.44 1.39-.44 2.95-.83 4.4q-1.98 7.34-3.71 13.99-1.9 7.3-6.96 17.19H5.45q2.29-12.46 3.82-16.75 2.49-6.96 2.94-9.32 5-13.93 10.37-27.89.68-1.78 1.44-3.54.76-1.76 1.34-3.57c.91-2.83 2.37-5.44 3.47-8.27 2.29-5.85 4.86-11.72 7.4-17.66q7.08-16.58 16.22-35.01 6.22-12.55 13.64-24.41c3.37-5.38 7.63-9.93 12.69-13.82 11.38-8.76 23.8-16.24 36.78-22.41q18.73-8.89 39.36-17.95 14.4-6.32 27.64-12 24.84-10.67 49.42-21.93ZM1220.34 1374.94q16.36 6.91 31.28 16.47c10.28 6.59 19.44 13.07 25.82 23.04q9.16 14.33 18.81 34.89 15.8 33.65 28.6 67.42 1.44 3.81 4.64 13.08 2.28 6.65 4.75 13.03.86 4.86 2.99 11.88.83 2.75.48 6.25H1050.2q-3.27-4.91-4.7-9.02-3.65-10.49-6.97-24.76-1.18-5.07-2.32-9.24-1.26-4.56-2.55-9.13-2.29-8.12-6.53-15.04a.8.79-21.6 0 1 .52-1.19q4.93-.98 9.46-2.61c3.25-1.17 6.6-1.68 9.95-2.89q3.47-1.25 7.5-2.39 6.59-1.85 13.68-4.05 10.92-3.39 20.76-6.48 5.35-1.68 10.24-3.19 3.64-1.12 8.64-3.26.44-.19.49-.66c1.3-13.88 2.49-27.47 3.03-41.59l2.32-60q.13-3.31-2-3.61c8.27-7.7 18.24-14.52 29.32-17.47 3.98-1.06 8.68-1 12.43.82 1.93.94 4 1.58 5.94 2.52q19.15 9.29 38.4 18.94 10.99 5.5 22.53 8.24Z"/><path fill="#38475e" d="M1111.72 1361.89q2.13.3 2 3.61l-2.32 60c-.54 14.12-1.73 27.71-3.03 41.59q-.05.47-.49.66-5 2.14-8.64 3.26-4.89 1.51-10.24 3.19-9.84 3.09-20.76 6.48-7.09 2.2-13.68 4.05-4.03 1.14-7.5 2.39c-3.35 1.21-6.7 1.72-9.95 2.89q-4.53 1.63-9.46 2.61a.8.79-21.6 0 0-.52 1.19q4.24 6.92 6.53 15.04 1.29 4.57 2.55 9.13 1.14 4.17 2.32 9.24 3.32 14.27 6.97 24.76 1.43 4.11 4.7 9.02H942.83q11.17-23.75 19.69-49.49 7.58-22.91 12.69-45.4 21.27-10.21 30.67-15 10.78-5.49 22.86-13.07 17.74-11.13 35.96-29.35 15.38-15.39 34.01-34.74 4.83-5.02 13.01-12.06Z"/><path fill="#9c6747" d="M975.21 1466.11q-5.11 22.49-12.69 45.4-8.52 25.74-19.69 49.49h-252.2l-.6-.25q-.49-.2-.11-.56l24.04-23.34q1.5-.84 4.04-.89c8.65-.19 17.3-.6 25.82-1.83q6.47-.94 12.84-1.5c6.93-.62 13.73-2.1 20.63-3.07q9.23-1.31 17.71-3.23c3.84-.87 7.76-1.31 11.64-2.17 21.64-4.83 40.97-9.66 61.08-15.93q54.41-16.96 103.86-40.38 1.39-.65 3.63-1.74Z"/><path fill="#d0d9d4" d="m713.96 1536.85-24.04 23.34q-.38.36.11.56l.6.25H500.94q-31.56-41.01-57.66-85.8 3.73 1.57 7.14 3.45 6.1 3.36 6.93 3.77 52.27 26.02 108.75 40.77 5.72 1.49 11.43 2.6c5.11 1 10.08 2.52 15.36 3.27 7.24 1.03 14.42 2.88 21.71 3.58 7.97.77 16.02 2.22 24.05 2.73q17.78 1.12 25.45 1.48 24.01 1.13 48.85-.47a.98.96-26.4 0 1 .67.22q.14.11.34.25Z"/><path fill="#ffe0b4" d="M12.21 1534.93q-.45 2.36-2.94 9.32-1.53 4.29-3.82 16.75H.51q-.12-.24-.19-.5-.06-.25.02-.5c1.29-3.61 3.33-6.73 4.46-10.41q1.01-3.3 2.57-6.72.23-.51.67-.86.38-.3.53-.76 1.17-3.48 3.64-6.32ZM1334.24 1542.87l7.8 16.8a.78.77 83.2 0 1-.85 1.09q-1.15-.23-2.34.24h-1.14q.35-3.5-.48-6.25-2.13-7.02-2.99-11.88Z"/></svg>